<svg xmlns="http://www.w3.org/2000/svg" width="512" height="512" viewBox="0 0 512 512">
  <defs>
    <linearGradient id="编组-2备份-3-a" x1="16.407%" x2="83.593%" y1="0%" y2="100%">
      <stop offset="0%" stop-color="#02EBDA"/>
      <stop offset="100%" stop-color="#0394FF"/>
    </linearGradient>
    <linearGradient id="编组-2备份-3-b" x1="16.226%" x2="83.774%" y1="0%" y2="100%">
      <stop offset="0%" stop-color="#206CFF"/>
      <stop offset="100%" stop-color="#731FFF"/>
    </linearGradient>
  </defs>
  <g fill="none" fill-rule="evenodd">
    <rect width="512" height="512"/>
    <g transform="translate(27.959 62.908)">
      <path fill="url(#编组-2备份-3-a)" d="M124.315061,6.42540488e-11 L317.978604,193.96587 L124.315061,387.931741 L-2.78236769e-12,263.422 L68.667,194.647 L137.397274,263.483485 L206.470604,194.302325 L137.397274,125.121164 L69.004,193.62 L-2.78236769e-12,124.509 L124.315061,6.42540488e-11 Z M262.013406,138.241593 L206.496523,193.845143 L262.013406,249.448692 L317.530288,193.845143 L262.013406,138.241593 Z"/>
      <path fill="url(#编组-2备份-3-b)" d="M262.219166,2.06530082e-12 L456.081911,193.96587 L262.219166,387.931741 L137.251519,262.897 L206.145184,193.96587 L137.251519,125.034 L262.219166,2.06530082e-12 Z M262.219166,138.362321 L206.645179,193.96587 L262.219166,249.56942 L317.793153,193.96587 L262.219166,138.362321 Z"/>
    </g>
  </g>
</svg>
